<?xml version="1.0" standalone="no"?>
<!DOCTYPE svg PUBLIC "-//W3C//DTD SVG 20010904//EN"
 "http://www.w3.org/TR/2001/REC-SVG-20010904/DTD/svg10.dtd">
<svg version="1.0" xmlns="http://www.w3.org/2000/svg"
 width="500.000000pt" height="500.000000pt" viewBox="0 0 500.000000 500.000000"
 preserveAspectRatio="xMidYMid meet">
<metadata>
Created by potrace 1.14, written by Peter Selinger 2001-2017
</metadata>
<g transform="translate(0.000000,500.000000) scale(0.100000,-0.100000)"
fill="#000000" stroke="none">
<path d="M0 2500 l0 -2500 2500 0 2500 0 0 2500 0 2500 -2500 0 -2500 0 0
-2500z m1252 453 c48 -43 4 -102 -104 -136 -23 -8 -28 -55 -31 -272 -2 -140
-5 -185 -17 -203 -19 -28 -43 -36 -69 -22 -41 22 -46 46 -49 268 l-4 212 -48
0 c-93 0 -120 64 -46 109 85 53 326 82 368 44z m1649 -24 c58 -62 88 -227 70
-383 -17 -146 -64 -213 -156 -223 -23 -3 -59 0 -78 6 -123 41 -170 276 -67
331 44 24 71 -7 85 -95 10 -64 15 -75 36 -75 12 0 24 10 30 28 17 43 12 172
-10 262 -26 103 -26 135 -1 160 28 28 57 25 91 -11z m746 -96 c20 -26 15 -50
-13 -70 -15 -10 -40 -30 -56 -45 -37 -35 -31 -59 26 -109 38 -34 41 -41 41
-87 0 -40 -6 -59 -30 -94 -72 -104 -245 -131 -245 -38 0 32 22 53 73 70 43 13
62 41 48 68 -5 9 -25 41 -45 71 -53 79 -48 149 17 209 54 50 156 64 184 25z
m305 -9 c117 -61 63 -253 -84 -295 -54 -16 -53 -15 -38 -34 19 -23 68 -18 117
11 95 55 134 -16 55 -99 -44 -47 -99 -70 -152 -65 -61 6 -99 34 -134 97 -72
133 -25 328 94 389 48 25 89 23 142 -4z m-2247 -9 c14 -13 25 -29 25 -35 0 -7
14 0 31 14 44 37 125 37 162 0 51 -50 59 -188 20 -341 -20 -81 -50 -127 -86
-131 -47 -6 -58 58 -36 227 16 124 -9 178 -50 111 -13 -23 -19 -59 -24 -144
-6 -126 -22 -172 -62 -182 -60 -15 -75 38 -75 264 0 197 10 236 63 241 4 1 19
-10 32 -24z m-252 1 c107 -44 150 -238 87 -385 -66 -152 -223 -155 -296 -5
-64 131 -17 331 91 384 47 24 74 25 118 6z m1800 0 c78 -32 124 -137 114 -262
-11 -147 -77 -234 -177 -236 -115 -1 -195 143 -169 303 25 154 127 239 232
195z m-1134 -40 c7 -16 16 -74 20 -129 7 -109 16 -125 65 -113 35 9 46 40 46
127 0 38 7 85 14 104 13 29 20 35 45 35 61 0 91 -96 91 -290 0 -145 -17 -239
-57 -312 -32 -58 -64 -86 -114 -97 -73 -17 -179 33 -179 85 0 43 35 52 117 28
17 -5 30 1 52 23 28 28 39 65 55 176 l5 39 -44 -41 c-36 -33 -52 -41 -82 -41
-87 0 -141 74 -150 208 -6 83 8 172 33 210 22 33 64 27 83 -12z m-401 -1013
c32 -27 38 -68 13 -89 -11 -10 -17 -22 -14 -27 8 -14 -18 -27 -55 -27 -43 0
-82 38 -82 80 0 66 88 105 138 63z m196 11 c26 -10 6 -34 -28 -34 -36 0 -56
-15 -56 -42 0 -23 42 -50 65 -42 17 7 38 -13 29 -28 -3 -4 -23 -8 -45 -8 -29
0 -47 7 -64 25 -65 64 11 163 99 129z m96 -24 c0 -25 4 -30 25 -30 21 0 25 5
25 30 0 23 4 30 20 30 18 0 20 -7 20 -80 0 -73 -2 -80 -20 -80 -16 0 -20 7
-20 30 0 25 -4 30 -25 30 -21 0 -25 -5 -25 -30 0 -23 -4 -30 -20 -30 -18 0
-20 7 -20 80 0 73 2 80 20 80 16 0 20 -7 20 -30z m256 -42 c16 -40 31 -76 32
-80 2 -5 -5 -8 -16 -8 -11 0 -22 7 -26 15 -3 9 -18 15 -36 15 -18 0 -33 -6
-36 -15 -4 -8 -15 -15 -26 -15 -12 0 -18 5 -15 13 70 177 80 183 123 75z m166
55 c22 -20 23 -41 1 -65 -15 -17 -15 -20 12 -48 l29 -30 -26 0 c-17 0 -34 10
-47 28 l-20 27 -1 -27 c0 -21 -5 -28 -20 -28 -18 0 -20 7 -20 80 l0 80 37 0
c20 0 45 -7 55 -17z m118 -48 c0 -63 1 -65 25 -65 16 0 25 -6 25 -15 0 -11
-12 -15 -45 -15 l-45 0 0 80 c0 73 2 80 20 80 18 0 20 -7 20 -65z m140 -15 c0
-73 -2 -80 -20 -80 -18 0 -20 7 -20 80 0 73 2 80 20 80 18 0 20 -7 20 -80z
m150 65 c0 -9 -9 -15 -25 -15 -31 0 -34 -27 -3 -32 34 -5 37 -38 4 -38 -16 0
-26 -6 -26 -15 0 -9 9 -15 25 -15 16 0 25 -6 25 -15 0 -11 -12 -15 -45 -15
l-45 0 0 80 0 80 45 0 c33 0 45 -4 45 -15z m230 -65 c0 -73 -2 -80 -20 -80
-17 0 -20 7 -20 50 0 28 -4 50 -10 50 -18 0 -10 29 12 44 12 9 26 16 30 16 5
0 8 -36 8 -80z m110 0 c0 -64 -3 -80 -15 -80 -11 0 -15 12 -15 50 0 38 -4 50
-15 50 -22 0 -18 27 7 44 12 9 26 16 30 16 5 0 8 -36 8 -80z m188 72 c-1 -4
-21 -40 -43 -79 -32 -58 -45 -73 -63 -73 l-23 0 27 48 c15 26 31 51 36 57 16
18 8 25 -27 25 -33 0 -43 8 -28 23 9 10 125 9 121 -1z m-408 -97 c0 -10 -11
-15 -35 -15 -24 0 -35 5 -35 15 0 10 11 15 35 15 24 0 35 -5 35 -15z"/>
<path d="M3841 2704 c-44 -56 -10 -88 45 -41 20 18 25 29 20 45 -10 30 -40 28
-65 -4z"/>
<path d="M1366 2661 c-32 -61 -11 -221 28 -221 29 0 48 46 48 118 1 110 -42
169 -76 103z"/>
<path d="M3169 2674 c-21 -25 -24 -152 -5 -197 31 -75 77 -28 79 80 1 102 -37
162 -74 117z"/>
<path d="M1622 1738 c-7 -7 -12 -24 -12 -38 0 -35 17 -50 59 -50 43 0 32 14
-12 14 -27 1 -32 5 -35 27 -2 14 4 31 12 38 20 17 66 3 66 -20 0 -10 5 -19 10
-19 14 0 13 33 -2 48 -7 7 -26 12 -43 12 -17 0 -36 -5 -43 -12z"/>
<path d="M1652 1699 c2 -6 8 -10 13 -10 5 0 11 4 13 10 2 6 -4 11 -13 11 -9 0
-15 -5 -13 -11z"/>
<path d="M2210 1695 c0 -8 5 -15 10 -15 6 0 10 7 10 15 0 8 -4 15 -10 15 -5 0
-10 -7 -10 -15z"/>
<path d="M2380 1730 c0 -13 5 -20 13 -17 6 2 12 10 12 17 0 7 -6 15 -12 18 -8
2 -13 -5 -13 -18z"/>
</g>
</svg>
